<svg xmlns="http://www.w3.org/2000/svg" viewBox="0 0 100 100"><g fill="#fff"><path d="M85 .401c-7.18 0-13 5.891-13 13.157V85.82c0 7.267 5.82 13.157 13 13.157s13-5.891 13-13.157V13.558C98 6.292 92.18.401 85 .401zM14.935 58.499C7.791 58.499 2 64.39 2 71.656V85.82c0 7.267 5.791 13.157 12.935 13.157S27.87 93.086 27.87 85.82V71.656c0-7.266-5.792-13.157-12.935-13.157zM50 31.98c-7.18 0-13 5.891-13 13.157V85.82c0 7.267 5.82 13.157 13 13.157s13-5.891 13-13.157V45.137c0-7.266-5.82-13.157-13-13.157z"/></g></svg>