<?xml version="1.0" encoding="utf-8"?>
<!-- Generator: Adobe Illustrator 25.3.1, SVG Export Plug-In . SVG Version: 6.00 Build 0)  -->
<svg version="1.1" id="olddomain" xmlns="http://www.w3.org/2000/svg" xmlns:xlink="http://www.w3.org/1999/xlink" x="0px" y="0px"
	 viewBox="0 0 2000 2000" style="enable-background:new 0 0 2000 2000;" xml:space="preserve">
<style type="text/css">
	.st0{fill:#FFFFFF;}
	.st1{fill:#040000;stroke:#FFFFFF;stroke-width:1.775;stroke-miterlimit:10;}
</style>
<path id="bg" class="st0" d="M378.8,206.6C51.5,470.7,11.9,866.5,8.8,903.4c-6.8,80.3-7.4,206.8,36,358.6
	c-11.1,54.3-22.3,108.5-33.4,162.8c8.9,0,17.8,0,26.8,0c1.5,39.1,4.2,71.7,6.7,95.9c8.1,79.2,16.7,100.9,24.5,115.9
	c13.9,26.7,31.9,44.8,44.6,55.7c4.5,14.9,8.9,29.7,13.4,44.6c17.1,19.3,34.2,38.6,51.3,58c9.8,13.4,22.2,28,37.9,42.4
	c41,37.6,84.6,55.7,113.7,64.7c3.7-8.2,7.4-16.4,11.1-24.5c9.8,6.2,20.2,12.2,31.2,17.8c95.2,48.9,192.8,50.5,263.1,42.4
	c63.7,22.3,146.7,44.9,245.3,55.7c84.9,9.4,159.9,7.7,220.7,2.2c36.7,2.4,77.9,2.9,122.6,0c29.4-1.9,57-5,82.5-8.9
	c6.7-5.9,13.4-11.9,20.1-17.8c25.8-2.7,58-8.3,93.6-20.1c34.4-11.3,62.8-25.2,84.7-37.9c0-8.2,0-16.4,0-24.5
	c16.4-5.9,32.7-11.9,49.1-17.8c7.8,6.4,19.7,15.1,35.7,22.3c12.3,5.6,30.1,11.7,82.5,15.6c19.7,1.4,45.4,2.7,75.8,2.2
	c0.8,3.6,3.9,16,15.6,24.5c3.6,2.6,14.8,10.7,26.8,6.7c10.5-3.6,17.8-15.3,17.8-29c4.2,5.2,12.5,13.5,24.5,15.6
	c20.6,3.6,44.6-12.1,55.7-40.1c14.9-8.2,29.7-16.4,44.6-24.5c16.6-20,51.6-67.9,60.2-138.2c6.2-50.5-4.3-90.1-8.9-107
	c-11.8-43.2-30.7-72.8-46.8-98.1c-20.8-32.7-42.1-57.1-58-73.6c45.6-93.4,115.7-271.5,104.8-499.4c-2.7-56.6-13.7-183.7-73.6-332.2
	c-81.4-201.7-204.4-322.3-238.6-354.5C1537.8,132,1400.8,76.3,1344.6,56c-150.8-54.9-276-56-352.3-56C917,0,795.2,1.1,648.9,53.5
	C612.4,66.6,498.2,110.2,378.8,206.6z"/>
<g id="rakko">
	<path class="st1" d="M1269.6,480.8c-14.1-9-26.1-13-45.5-19.4c-13.1-4.3-30.2-9.1-34.1-10.2c-5.1-1.4-9.3-2.5-12.2-3.3
		c16.1,11.6,30.2,19,40.4,23.6c16.2,7.3,25.8,9.3,40.4,19.4c10.6,7.3,15.9,10.9,21.1,16.8c5.2,6,8.4,11.7,10.9,10.9
		c2.4-0.7,3-6.7,2.5-10.9C1292.7,503.6,1290.4,494,1269.6,480.8z"/>
	<path class="st1" d="M672.6,1477.5c-11.8-7.3-24.8-16.5-37.9-28.2c-29-25.9-47.3-53.6-58.5-74.5c7.8,19,15.4,39.1,22.7,60.2
		c4.9,14.1,9.4,27.8,13.5,41.3c8.5-0.9,18.2-1.4,28.6-1.3C652.8,1475.1,663.4,1476.1,672.6,1477.5z"/>
	<path class="st1" d="M681.5,1559.2c11.2-0.3,23-0.4,35.4,0c15.4,0.5,29.9,1.5,43.4,2.9c-14.8-7.1-32.4-17.3-50.5-32
		c-11-8.9-20.2-17.8-27.8-26.1c-9.1,0.6-19.4,0.7-30.7,0c-11.2-0.7-21.4-2.1-30.3-3.8c10.1,8.3,20.7,17.7,31.6,28.2
		C663.3,1539,672.9,1549.3,681.5,1559.2z"/>
	<path class="st1" d="M1815.6,649.9c-13.3,2.6-26.6,5.3-39.9,8c-5.2,1-10.4,2.1-15.6,2.9c-2-0.5-3.8-0.8-5.3-1.1
		c-0.1,4.2-0.2,8.5-0.3,12.7c-0.5,7.8-1.3,13.9-2,18c0.8,1.2,1.7,2.4,2.6,3.8c10.2-3.7,20.6-7.2,31-10.4c5.9,2.8,12,6.1,18.3,10
		c1.1,0.7,2.1,1.4,3.1,2.1c-15.2,3.5-30.5,6.6-46,8.7c3,5.4,6,11.6,8.6,18.6c0.3,0.8,0.6,1.6,0.8,2.3c0.3-0.1,0.6-0.1,0.9-0.2
		c7.1-1.6,14.1-2.7,21.3-3.8c13-2,26.1-3.8,39.2-5.4c4.6,4.5,8.4,8.8,11.4,12.6c-1.7-3.7-3.9-8.2-6.9-13.1c23-2.8,46.2-6,69.5-7.2
		c-3.9-12.6-7.9-24.7-12.1-36.4c-21.8,8.1-44.5,13.6-67,19.3c-2.6,0.7-5.2,1.3-7.9,2c-1-1-2.1-2.1-3.2-3.1c-4.6-4.3-9.3-7.9-14-11.1
		c7-2.1,14-4.3,20.9-6.4c21.4-6.6,42.5-14.2,64-20.3c-1.4-3.8-2.9-7.6-4.3-11.3c-9.6-1.2-19.5-0.2-28.9,1.5
		C1841.1,644.8,1828.4,647.4,1815.6,649.9z"/>
	<path class="st1" d="M1794.3,737.7c-6.5,0.5-13,0.9-19.5,1.2c1.5,6.4,2.4,12.8,2.9,19.2c0,0.1,0,0.2,0,0.3
		c0.8,10.6,0.4,20.9-0.9,30.8c6.2-2,12.4-3.9,18.5-6c2-0.7,4-1.4,6-2c6.1,3.4,12.6,7.8,18.8,13.5c-6.7,1.8-13.5,3.6-20.2,5.1
		c-8.6,2-17.3,4.2-26,5.9c-3.4,15.5-8.6,29.6-13.5,41.5c2.4-0.7,4.9-1.4,7.3-2.1c3.8,3.3,8,7.6,12.1,12.8c-6,1-12,2-18.1,3.1
		c-2.6,0.5-5.3,0.9-8,1.3c-0.5,1-0.9,2.1-1.4,3c-4.2,9.2-9.8,21.6-18,35.2c1.9-0.6,3.7-1.2,5.5-1.8c9-3.1,18.1-6.1,27.2-9
		c8.7-2.7,17.5-5.5,26.2-8.2c2.1,5.5,3.5,10.8,4.6,15.9c-10.4,3-20.8,6-31.3,9c-8.2,2.3-16.5,4.7-24.7,6.8
		c-5.9,1.6-12.5,3.8-18.9,4.4c-13.2,17.9-31.1,36.5-56,51.9c-8,5-16,9.1-23.7,12.6c0.7-0.1,1.5-0.3,2.2-0.4
		c52.1-10.6,104.2-21.9,155.3-36.6c-0.3,3.6-0.7,7.3-1.2,11.2c0.9-2.7,2.1-6.7,3.3-11.8c1.4-0.4,2.8-0.8,4.2-1.2
		c47.1-13.8,92.8-30,137.5-49.9c-1.2-11.7-2.7-23.7-4.5-36.1c-8.7,2.6-17.5,4.9-26.2,7.3c-19.9,5.4-39.8,11-59.6,16.7
		c0.8-5.1,1.5-11.4,1.5-18.8c3.5-1,7-2.1,10.6-3.1c16.4-4.8,32.9-9.6,49.3-14.3c7.2-2.1,14.4-4,21.6-5.9c-0.4-2.1-0.7-4.3-1.1-6.4
		c-14.8,2.8-29.9,4.4-44.8,6.5c-12.3,1.7-24.5,3.6-36.8,5.6c-0.7-5.4-2-12-4.3-19.1c12.2-2.2,24.4-4.3,36.6-6.1
		c15.2-2.3,30.5-4.7,45.8-5.5c-3.6-18.7-7.6-36.8-12-54.3c-23.9,10.8-49.4,18.8-74.2,26.8c-5,1.6-10.1,3.2-15.2,4.7
		c-5.1-6-10.6-11-16.1-15.1c8.4-2.9,16.7-5.7,25-8.6c25.3-8.8,49.8-19.6,74.9-28.8c-0.9-3.4-1.9-6.7-2.8-10
		c-24.8,2.7-49.9,3.5-74.8,5.5C1823.1,735.4,1808.7,736.5,1794.3,737.7z M1853.3,863.3c0.8,8,0.8,14.4,0.6,18.1
		c-12.7,3.6-25.3,7.2-38,10.8c-3.4,1-6.8,1.9-10.2,2.9c-0.7-5.4-1.7-10.9-3.2-16.5C1819.5,873.4,1836.4,868.3,1853.3,863.3z
		 M1835.4,828.8c2.8-0.6,5.6-1.1,8.4-1.6c2.9,6.3,4.9,12.6,6.4,18.6c-3.6,0.6-7.1,1.2-10.7,1.7c-15.2,2.5-30.5,5.2-45.7,7.9
		c-2.8-5.6-5.8-10.6-8.9-15.1C1801.7,835.9,1818.4,832.1,1835.4,828.8z"/>
	<path class="st1" d="M1741.1,520.4c-12.6,4.5-25.2,7.9-38.5,10c9.8,10.2,19.6,22.7,28.2,37.9c19.3-6.5,39.1-11.2,59.3-14.4
		c12.6-2,25.2-3.5,37.9-4.6c4.3-0.4,8.7-0.7,13-0.8c-12.4-24.1-23.9-43.9-33-58.8c-9.1,5.4-18.7,10.1-28.3,14.5
		C1767.1,510.1,1754.2,515.7,1741.1,520.4z"/>
	<path class="st1" d="M1594.5,307.8c8.4,5,14,9.8,19.7,16.8c2.4,2.9,7.3,9,12,17.8c1-0.2,1.9-0.4,2.9-0.6c9-1.9,17.9-3.8,26.9-5.7
		c10-2.1,20-4.2,30.1-6.1c-12.4-13.2-24.2-24.9-35-35.2c-15.9,3.9-32,7.2-48,10.9C1600.2,306.4,1597.3,307.1,1594.5,307.8z"/>
	<path class="st1" d="M1716.5,463.1c-14.5,2.5-29,5.4-43.3,8.6c-3.5,0.8-7.1,1.7-10.6,2.5c-0.4,9.6-2,17.5-3.2,22.6
		c7.2,4.1,19.2,11.5,32.4,23.2c0.2,0,0.5-0.1,0.7-0.1c1.1-0.1,2,0.5,2.5,1.3c0.2-0.1,0.4-0.1,0.5-0.2c1.5-0.5,2.9-1,4.4-1.5
		c2.6-0.9,5.2-1.9,7.8-2.9c4.9-1.9,9.7-3.9,14.6-5.8c10-3.8,19.7-8.1,29.4-12.7c15.8-7.4,31.1-16.2,47-23.5
		c-4.7-7.4-9.4-14.6-14.1-21.6c-1.2,0.1-2.3,0.3-3.4,0.4c-7.1,1-14.2,1.7-21.4,2.7C1745.3,458.1,1730.9,460.6,1716.5,463.1z"/>
	<path class="st1" d="M1753.7,640.4c0.3,2.5,0.5,4.9,0.6,7.2h0.1c6.6-2.3,13.2-4.1,19.9-5.9c13.4-3.7,26.8-7.1,40.2-10.4
		c13.3-3.3,26.7-6.8,40.2-9c6.6-1.1,13.1-1.8,19.6-1.7c-2.7-6.4-5.3-12.6-8-18.6c-0.2,0.1-0.4,0.2-0.7,0.3
		c-20.5,8.8-41.3,16.4-62.6,23.3C1786.8,631.1,1770.5,636.4,1753.7,640.4z"/>
	<path class="st1" d="M1792.2,569.4c-18.7,2.3-37.4,5.7-55.8,9.7c8,16.7,12.7,32.9,15.4,47.7c14.7-6.5,29.8-12.2,44.8-18
		c20.7-8,41.3-15.8,62.5-22.6c0.1,0,0.2,0,0.3-0.1c-3.3-7.1-6.5-13.9-9.7-20.4c-7.2,0.3-14.4,0.4-21.6,0.7
		C1816,567,1804.1,567.9,1792.2,569.4z"/>
	<path class="st1" d="M1653.8,424.2c0.7,1.5,1.3,3.1,1.9,4.8c1.3,3.6,2.5,7.2,3.4,10.7c1.4-0.7,2.8-1.4,4.3-2.2
		c10.8-5.7,21.6-11.5,32-17.9c10.1-6.3,20.1-12.6,29.1-20.4c4.1-3.6,8.1-7.4,12.1-11.2c-0.1-0.1-0.2-0.2-0.3-0.3
		c-13.5,9.1-28.1,16.3-43.2,22.9C1680.2,416,1667.2,420.7,1653.8,424.2z"/>
	<path class="st1" d="M1891.6,1316.1c3.7-9.8,7.4-20,10.9-30.4c-21.3,7.8-44,12.8-65.8,17.5c-15.8,3.4-31.7,6-47.6,8.5
		c-7.8,1.2-15.9,2.6-23.9,3.4c6.7,6.6,13.1,13.1,19.1,19.5c15.6-2.7,31.7-2.7,47.4-4.6c12.7-1.6,25.3-4.2,37.6-7.4
		c6.2-1.6,12.4-3.6,18.6-5.4C1889.1,1316.9,1890.4,1316.5,1891.6,1316.1z"/>
	<path class="st1" d="M1883.4,1073.5c-47.7,14.8-95.7,28.8-143.8,42.2c-24.2,6.7-48.6,13.1-72.9,19.2c-12,3-24.1,6.1-36.1,9
		c-12.3,2.9-24.6,6.2-37.3,7.2c-0.5,0-1.1,0-1.6-0.1c13.3,17.2,27.5,32.5,43.3,48.1c10.1-6.2,22.1-10.1,33-14.7
		c11.5-4.8,23-9.6,34.6-14.3c42.2-17.2,84.5-34.2,127.1-50.5c38.8-14.9,77.6-30.4,117.1-43.5c0.3-3.2,0.6-6.4,0.8-9.6
		c0.3-3.8,0.6-8.3,1-13.4c-8.2,2.8-16.6,5.3-24.7,8C1910.2,1065.2,1896.8,1069.4,1883.4,1073.5z"/>
	<path class="st1" d="M1920.6,1225.2c-2.3,0.4-4.6,0.9-6.9,1.4c-10.1,2.1-20.1,4.2-30.2,6.3c-57.7,12-115.3,24-173.3,34.7
		c15.4,12.6,25.4,19.8,43.6,36.7c10.9-3,22.2-4.8,33.2-7c15.2-3,30.3-6.2,45.3-9.7c15.3-3.5,30.6-7.5,45.6-12.2
		c10.5-3.3,20.9-6.9,31.3-10.4C1912.7,1253.8,1916.6,1240.5,1920.6,1225.2z"/>
	<path class="st1" d="M1870.6,1366.8c-19.1,0.7-38.3,0.3-57.5,0.4c5.3,6.4,10.3,12.6,14.8,18.5c11.9-1,23.8-2.3,35.7-3.6
		C1865.9,1377.1,1868.3,1372,1870.6,1366.8z"/>
	<path class="st1" d="M1883.7,1336.2c-3.1,0.8-6.1,1.5-9.1,2.3c-12.3,3.1-24.8,5.2-37.5,6.5c-12.7,1.4-25.4,1.5-38.1,1.5
		c-1.3,0-2.5,0-3.8,0c3.1,3.5,6.2,7,9.1,10.4c24.2-1.5,48.4-4.2,72.6-4.7C1879.3,1347,1881.5,1341.6,1883.7,1336.2z"/>
	<path class="st1" d="M1459.6,203.2c24.7,9.5,31.8,19.8,33.9,23.3c0.6,1,1.6,2.5,2.4,4.3c11.1-3.8,22.1-7.6,33.1-11.6
		c7-2.6,14-5.1,21.1-7.5c-11-7.8-22-15.2-33-22.3c-7.9,1.7-15.9,3.6-23.7,5.3C1482.1,197.3,1470.8,200.2,1459.6,203.2z"/>
	<path class="st1" d="M1631.3,353.5c2.5,6.6,4.6,14.2,5.6,22.6c0.9,8.3,0.5,15.3,0,20.1c3.2,3.9,6.8,8.8,10.2,14.6
		c12.7-5.2,25.3-10.6,37.6-16.5c13.5-6.5,26.5-14,39.6-21.4c-8.6-10.3-17-20-25.3-29c-13.3,2.3-26.8,4.1-40.2,5.9
		C1649.6,351.1,1640.5,352.3,1631.3,353.5z"/>
	<path class="st1" d="M1533.9,279.3c18.2,8.2,31.7,14.1,42.1,19c7.8-2.3,15.7-4.3,23.3-6.4c12.9-3.5,25.7-6.7,38.8-9.3
		c-6.9-6.3-13.2-11.9-18.8-16.8c-20.6,1.8-41,5.6-61.5,9.3C1550,276.6,1542,278.1,1533.9,279.3z"/>
	<path class="st1" d="M1497.4,248.1c-1.8,0.7-3.6,1.3-5.5,2c-3.1,2.1-6.2,3.1-6.6,3.2c-1.7,0.5-3.3,0.7-4.5,0.8
		c-0.2,0.1-0.5,0.2-0.7,0.3c7.3,3.5,18.3,8.6,31.8,14.9c1.9-0.2,3.8-0.4,5.8-0.6c13.7-1.7,27.3-4.6,40.9-7.4
		c14.9-3,30.1-6.4,45.3-8.3c-14.1-11.6-28.1-22.5-42.1-32.7c-8.9,5.1-18.3,9.2-27.8,13.2C1521.9,238.5,1509.7,243.5,1497.4,248.1z"
		/>
	<path class="st1" d="M1706,436.4c-9.7,7-19.9,13.4-30.1,19.6c12.3-3.3,24.7-6.3,37.2-9c14.7-3.1,29.5-5.6,44.4-7.8
		c5.3-0.8,10.6-1.6,16-2.2c-9.6-13.6-19.2-26.6-28.8-38.8c-2.4,3.8-5.2,7.4-8.2,10.8C1727.5,419.3,1717.1,428.5,1706,436.4z"/>
	<path class="st1" d="M1944.6,1095.7c-17.9,7.1-36,13.7-54.1,20.4c-42.3,15.9-84.5,32.2-126.7,48.4c-21.1,8.1-42.2,16.3-63.2,24.6
		c-10.4,4.1-20.7,8.1-31.1,12.1c-7.5,2.9-15.1,6.5-22.9,9c9.6,9.1,19.7,18.4,30.6,28.3c7.9,7.3,14.6,13.2,20.4,18.2
		c8-2,16.1-4,24.1-5.9c36.4-8.7,73.1-16.3,109.7-24.3c18.5-4,36.9-8,55.4-12c9.1-2,18.1-3.9,27.2-5.9c3.7-0.8,7.5-1.8,11.4-2.6
		C1932.7,1175.3,1939.8,1138.1,1944.6,1095.7z"/>
	<path class="st1" d="M440.9,356.2c20.1-0.7,40.3-1.3,60.4-1.7c9.4-0.2,18.7-0.3,28.1-0.2c3.6-2.3,7.4-5,11.5-8.6
		c12.1-10.7,9.8-13.8,22.4-26.7c13-13.3,27.2-21.9,46.4-30.8c57.2-26.4,68.4-23.3,117.1-47.9c5.8-2.9,11.3-5.7,16.5-8.4
		c-70.1,18.3-139.7,38.3-210,55.6c-68.8,17-138.9,32.5-209.8,36.6c-0.2,0.2-0.3,0.3-0.5,0.5c-11.3,11.6-24.3,25.5-38.4,41.7
		c11.8-1.3,23.7-2.3,35.6-3.3C360.4,359.8,400.6,357.6,440.9,356.2z"/>
	<path class="st1" d="M188.8,579.4c44.1-13,87.9-27.5,131.1-43.3c21.6-7.9,43.1-16.3,64.5-24.7c10.8-4.3,21.6-8.7,32.4-13
		c9.4-3.7,19.2-8.8,29.4-10.2c4.6-4.4,9.6-9.3,14.6-14.9c8-8.7,17.7-20.6,27.6-35.7c-14.8,3-29.7,6-44.6,8.9
		c-26.9,5.2-53.8,10.3-80.7,15c-10.4,2.1-20.8,4.3-31.3,6.4c-2.3,0.5-4.3,0.4-6.2-0.1c-2.6,0.4-5.2,0.9-7.8,1.3
		c-40.2,6.5-80.5,12.6-121.2,15.7c-20.5,32.6-40.8,69.1-59.5,109.5c4.8-1.3,9.6-2.6,14.2-3.9C164,586.7,176.4,583,188.8,579.4z"/>
	<path class="st1" d="M127,1051.8c-5.2,2.5-10.5,5-15.6,7.6c-17.5,8.6-34.9,18.2-53,25.9c0.2,3.7,0.4,7.4,0.6,11.2
		c2.1,39.2,3.4,61,10.9,62.4C81.3,1161.2,94.9,1113.1,127,1051.8z"/>
	<path class="st1" d="M659.6,237.8c43.5-11.8,87.1-24,131-34.6c13.6-10.7,27-18.1,29-19.4c15.4-9.9,41.5-31.1,160.5-22.3
		c22.8-5.6,46-10.3,69-14.9c54.5-11.1,109.3-20.6,163.7-32.2c27.4-5.9,54.7-12.3,81.7-19.6c5.4-1.5,10.8-3,16.1-4.6
		c-5.1-1.7-10.5-3.5-16.5-5.3c-55,12.2-110.1,23.9-165.7,33c-32.6,5.3-65.4,9.6-98.2,13c-33,3.4-66,6.2-98.8,10.6
		c-60.9,8.2-120.5,23.6-179.4,40.5c-58.6,16.9-116.9,35.3-176.1,50c-29.4,7.3-59,13.4-89,17.8c-29.5,4.3-59,7.2-88.7,5.7
		c-20.2,16.8-41.1,35.5-62,56.1c31.3-5,62.7-10.4,93.7-16.8C507.2,278.8,583.4,258.5,659.6,237.8z"/>
	<path class="st1" d="M597,210c58.7-15.7,116.6-34.3,175.2-50.6c59.7-16.6,119.8-29.8,181.4-36.9c32.7-3.8,65.4-6.5,98.1-10.2
		s65.3-8.7,97.7-14.4c37.8-6.7,75.3-14.4,112.8-22.5c-17.6-4.8-37.6-9.6-59.7-14.1c-41.2,14.7-84.1,23.9-127.5,30.6
		c-50.9,7.9-102.3,12.5-153.5,18.1c-52.6,5.7-104.9,12.9-156.7,24.4c-54.4,12-107.8,27.6-161.3,43.2c-26.9,7.8-53.8,15.8-80.6,23.7
		c-13.6,4-27.1,8.1-40.7,12s-27.2,8-41.3,9.5c-0.5,0.1-0.9,0-1.3-0.1c-9.3,6.9-18.8,14.2-28.4,22c2.5-0.3,5.1-0.6,7.6-0.8
		C479.2,238.1,538.5,225.6,597,210z"/>
	<path class="st1" d="M1377.9,162.1c-15,9.2-30.2,17.9-45.7,26.1c35.1-1.3,56.8,0.5,56.8,0.5c9.8,0.8,23.8,2,41.9,6.1
		c0.7,0.2,1.4,0.3,2,0.5c5.4-1.4,10.8-2.6,16.2-3.8c14.2-3.1,28.4-5.5,42.8-7.2c5-0.6,9.9-1,14.9-1.3
		c-30.2-18.9-59.6-34.9-87.6-48.5c-4.2,3.1-8.4,6.2-12.7,9.1C1397.2,150.1,1387.6,156.1,1377.9,162.1z"/>
	<path class="st1" d="M1856.4,1397c-6.5,0.4-13.1,0.5-19.6,0.5c4.2,5.7,8,11,11.3,15.9C1850.8,1408.1,1853.6,1402.6,1856.4,1397z"/>
	<path class="st1" d="M1947.6,926.8c-4.7,2.9-9.4,5.7-14.1,8.5c-14.7,8.8-29.6,17.2-44.7,25.4c-52.8,28.6-106.9,54.7-160.7,81.2
		c-26.9,13.3-53.8,26.7-80.5,40.4c-25.5,13-50.4,27.5-76,40.2c0.4,0.6,0.8,1.3,1.2,1.9c4.7,7.2,9.4,14.1,14.3,20.6
		c-0.2-2.2,0.7-4.4,3.1-5.4c13.1-5.6,27.1-8.8,40.9-12.5c13.6-3.6,27.1-7.2,40.7-10.9c48.2-13.1,96.4-26.5,144.3-40.6
		c24.1-7.1,48.2-14.4,72.2-21.9c11.8-3.7,23.7-7.5,35.5-11.2c8.6-2.7,17.1-5.6,25.8-8.2C1950.4,1007.4,1950.7,970.5,1947.6,926.8z"
		/>
	<path class="st1" d="M1640.1,1000c-13.8,2.5-27.6,4.9-41.5,7.3c-7.2,1.2-14.4,2.4-21.7,3.5c-6.3,0.9-12.7,2.3-19.1,2.3
		c-9.3,7.7-18.6,15.4-27.9,23.1c6.2,18,16.6,44.2,33.9,73.6c26.2-17.8,55.1-32.2,83-47c53.1-28,107.5-53.5,161.2-80.5
		c27.1-13.6,54-27.6,80.5-42.2c9.6-5.3,19.2-10.6,28.7-16c-10.9,4.5-21.8,8.8-32.8,12.9c-52.4,19.7-106.3,34.2-160.9,46.3
		C1695.9,989.6,1668,995,1640.1,1000z"/>
	<path class="st1" d="M87.2,911.4c39-19,77.7-38.7,115.9-59.3c18.1-9.8,36.1-19.7,54.1-29.8c-69.1,27.1-136.6,57.7-204,88.7
		c-0.5,5.8-0.9,11.7-1.2,17.6c0.9-0.5,1.9-0.9,2.8-1.4C65.5,921.7,76.4,916.7,87.2,911.4z"/>
	<path class="st1" d="M1124.1,144.1c-36.4,6.6-72.7,13.6-109,20.5c16,1.7,33.3,3.9,52.2,6.6c50,7.2,58.9,10.7,103.1,15.1
		c49.8,4.9,78,7.8,116.9,5c1.7-0.1,3.2-0.2,4.4-0.3c10.6-5,21.2-10.1,31.6-15.5c18.1-9.3,36.1-18.8,53.7-28.9
		c8.8-5,17.6-10.2,26.4-15.3c1.3-0.8,2.6-1.6,4-2.4c-24.7-11.5-48.1-21.2-69.8-29.3c-2-0.7-4.1-1.5-6.5-2.4
		c-14,4.4-28.1,8.3-42.3,12C1234.5,123.5,1179.4,134.1,1124.1,144.1z"/>
	<path class="st1" d="M207.3,828.6c19.1-8,38.2-15.7,57.5-23.1c13.4-5.1,26.9-10.6,40.6-15.2c16.4-23.4,25.3-35.8,26.7-37.4
		c6.1-6.5,18.1-19.1,27.9-38.7c-3.3,1.3-6.6,2.5-9.8,3.7c-11.2,4.3-22.6,7.8-34.1,11.1c-41.4,11.8-84,18.6-126.5,25.1
		c-21.4,3.3-42.9,6.4-64.3,9.9c-10.8,1.8-21.6,3.9-32.4,5.6c-5.5,0.9-11.1,1.9-16.6,2.7c-0.2,0-0.3,0-0.5,0.1
		c-8.9,37.3-17.3,81.1-21.7,128.1c13.3-7.2,26.8-14.2,40.4-21C131.4,861.1,169.3,844.6,207.3,828.6z"/>
	<path class="st1" d="M157.7,655.5c39.7-10.4,79.2-21.3,118.6-32.6c9.1-2.6,18.3-5.3,27.4-7.9c-26.8,3.3-53.7,5.8-80.7,7.2
		c-20.1,1.1-40.1,1.7-60.2,1.8c-10.1,0.1-20.1-0.1-30.1-0.5c-2.6-0.1-5.5-0.1-8.3-0.2c-5.2,12.4-10.3,25.1-15.2,38.2
		c-0.8,2.1-1.8,4.8-3,8.2c5.8-2,11.9-3.3,17.6-4.9C135.1,661.7,146.4,658.5,157.7,655.5z"/>
	<path class="st1" d="M335.5,440.4c48.4-15.1,96.8-30.2,145.1-45.3c2.9-5.5,7.1-12.1,13.4-18.4c1.8-1.8,3.5-3.4,5.2-4.8
		c-2,0-3.9,0.1-5.9,0.1c-39.9,0.8-79.9,2.2-119.8,4.1c-20.1,1-40.2,2.3-60.3,3.3c-13.8,0.7-27.6,1.7-41.5,2
		c-19.5,23.5-40.6,51.1-61.7,82.8c16-3.3,32-6.4,48.1-9.5C283.9,449.8,309.7,445.1,335.5,440.4z"/>
	<path class="st1" d="M827,81.3c39-4.3,77.8-9.5,116.5-15.7c40.2-6.4,80.1-14,119.9-22.4c-26.7-1.6-54.8-2.2-84.1-1.5
		c-126.6,3.1-231.4,29.9-302.6,54.5c11.3-1.5,22.7-2.8,34-3.9C749.4,88.3,788.3,85.6,827,81.3z"/>
	<path class="st1" d="M529.9,185.9c29.8-9.1,59.5-18.4,89.4-27.2C672.4,143,725.8,128.1,780,117c51.5-10.6,103.6-17,155.8-22.5
		c79.9-8.5,160.8-16.3,238.2-38.4c-19.3-3.3-40-6.3-61.8-8.7c-20.8,4.9-41.6,9.3-62.5,13.6c-77.1,15.6-155,27.5-233.3,35.5
		c-38.7,3.9-77.4,6.7-116.1,10.4c-26.8,2.6-53.3,6.4-79.8,11c-17,7.2-29.6,13.2-37.2,16.9c-21.8,10.6-66.9,33.7-122.1,72.4
		c7.4-2.6,15-4.8,22.5-7.1C499.1,195.3,514.5,190.6,529.9,185.9z"/>
	<path class="st1" d="M122.8,748c43.2-8.7,86.7-15.3,129.7-24.9c21.1-4.7,42.2-10.1,62.8-16.9c10.3-3.4,20.4-7.2,30.5-11.1
		c8-3.1,15.8-7,23.7-10.4c0-0.1,0-0.2,0-0.3c-14-0.1-28.2-0.7-42.1-0.7c-38.5-0.2-77,0.2-115.4,0.6c-19.2,0.2-38.5,0.8-57.7,0.9
		c-17.7,0.2-35.8,1.7-53.5,0.1c-5.9,17.6-13.8,42.5-21.4,72.6c3.2-0.8,5.9-1.4,7.1-1.7C98.4,752.9,110.6,750.5,122.8,748z"/>
	<path class="st1" d="M188.8,909c16.7-11.5,33.5-22.7,50.2-34c4.7-3.1,9.3-6.3,14-9.4c10.1-14.5,19.2-27.6,27.4-39.3
		c-7.1,4-14.3,8-21.4,12c-37.6,21.1-75.9,40.9-114.5,60.1c-19.6,9.7-39.4,19-59.3,28.1c-10,4.6-20,9-30.2,13.2
		c-1.2,0.5-2.3,1-3.5,1.4c-0.2,5.8,0.7,25.7,2.5,61.3c11.5-8.4,23.4-16.3,34.9-24.5C121.9,954.5,155.4,931.9,188.8,909z"/>
	<path class="st1" d="M377.1,608.4c-3.6,1.1-7.2,2.1-10.7,3.2c-11.2,3.5-22.4,7-33.6,10.5c-39.5,12.1-79.3,23.4-119.3,33.8
		c-19.7,5.1-39.4,10.1-59.2,14.8c2-0.1,4-0.2,5.9-0.3c38.8-2,77.6-2.7,116.4-3.1c19.6-0.2,39.1-0.2,58.7-0.2
		c11.5,0,23.1-0.2,34.7,0.1c-0.2-12.9-0.8-26.8,3.4-45.4C374.6,617.1,375.8,612.6,377.1,608.4z"/>
	<path class="st1" d="M83,1019.4c14.5-8,28.9-16.1,43.4-23.9c14.6-7.8,29.1-15.7,43.7-23.5c4.7-2.5,9.4-5.1,14.1-7.6
		c7.7-11.1,16.3-23.4,25.8-37.1c6.2-8.8,12.1-17.3,17.8-25.5c-29,19.6-58.1,39-87.2,58.3c-16.8,11.2-33.7,22.4-50.6,33.3
		c-11.7,7.5-23.2,15.5-35.2,22.7c0.3,6,0.7,12.4,1,19.1c2.2-1.3,4.4-2.6,6.6-4C69.1,1027.2,76,1023.3,83,1019.4z"/>
	<path class="st1" d="M142.6,1025.7c5.9-9.2,13.2-20.1,22.1-33.1c-10.5,5.5-21,11.1-31.4,16.6c-14.4,7.6-28.8,14.9-43.3,22.3
		c-7.4,3.8-14.8,7.4-22.3,11c-3.7,1.8-7.5,3.6-11.3,5.2c0.4,6.8,0.7,14,1.1,21.5c15.6-8.7,32-16.2,47.7-24.2
		C117.6,1038.5,130,1031.9,142.6,1025.7z"/>
	<path class="st1" d="M170.7,609.3c39.8-1.3,79.7-4.4,119.2-8.9c19.6-2.3,39-5,58.5-8.1c12.6-2,25.1-4.3,37.6-6.3
		c1.3-2.7,2.5-5.1,3.6-7.2c-7.2-3.6-14.5-7.8-21.7-11.3c-9.7-4.8-9.4-18.8-3.5-22.8c13.2-7.8,26.4-15.6,39.5-23.4
		c0.1-0.1,0.2-0.2,0.4-0.2c-7.5,3.2-15.1,6.2-22.6,9.3c-42.6,17.3-86.2,32.5-130.1,46.3c-22.3,7-44.6,13.5-67.1,19.7
		c-11.2,3.1-22.6,5.9-33.9,8.6c-6.6,1.6-13.4,3.4-20.3,4.6c-0.1,0.3-0.3,0.6-0.4,0.9c2.5-0.1,5.1-0.1,7.6-0.2
		C148.6,609.8,159.6,609.7,170.7,609.3z"/>
	<path class="st1" d="M1112.3,482.2c-24.8,8.5-38.7,26.4-43.1,32.2c-12.7,16.7-16.9,33.6-18.5,42.9c2.9-3.7,7.4-9,13.4-14.6
		c22.3-20.9,45.7-28.1,50.9-29.6c11-3.2,25.3-7.1,42.9-3.3c7,1.5,12.5,3.8,16.3,5.7c-2.4-0.1-4.8-0.1-7.3-0.2
		c-31.1-0.8-48.8,7.8-59.2,16.1c-8.6,6.8-14.4,15-32.6,30.2c-9,7.5-16.7,13.2-21.9,16.8c8.7,0.8,17.4,1.7,26.1,2.5
		c2.4,7,7,17.3,16,26.9c25.7,27.3,78.3,38.3,108.8,11.4c21.9-19.3,22.6-49.2,22.5-56.8c0,0,23.5,9.1,41.3,0.8
		c4.6-2.1,9.3-4.3,10.1-8.4c1.9-9.4-18.6-16.5-48.2-40.6c-20.6-16.8-19.7-20.6-33-27.1c-18-8.8-35.5-9.3-45.6-9.6
		C1140.1,477.3,1127.6,477,1112.3,482.2z M1158.7,587.5c-6.3,2.2-10.7,3.7-16.8,4.1c-6.6,0.4-17,1.1-23.8-5.7
		c-1.2-1.2-6.2-6.2-5.1-12.7c0.9-5.3,5.5-8.9,9.5-10.2c5-1.6,9.4,0.3,14.3,2.5c9.8,4.4,9.7,8.9,18.4,12.4c7.9,3.2,14.1,2,14.3,3.8
		C1169.7,583.6,1163.2,585.9,1158.7,587.5z"/>
	<path class="st1" d="M988.5,243.9c37.1,8.4,58.9,29.3,60.8,26.8c1.8-2.5-16.6-25.2-45.7-39.2c-23.9-11.5-44.8-12.2-83-13.1
		c-32.1-0.7-79.3,1.2-79.7,7.2c-0.1,1.9,4.3,4.9,28.1,9.8c8.5,3.3,17,6.5,25.5,9.8c-7.4,0.7-14.8,1.3-22.2,2
		c-10.1,1.5-21.6,3.9-34,7.8c-21.3,6.8-38.4,16-51,24.2c19.4-3,42-5.2,67.3-5.2c30.8,0,57.9,3.1,80.4,7.2
		c-5.1-3.6-11.7-7.6-19.6-11.1c-9.4-4.2-17.9-6.5-24.8-7.8c50.7-12.5,97.3-0.7,97.3-0.7c0-0.7-13.6-10.5-21.5-11.8
		c-30.6-5-45.7-3.9-45.8-4.5C920.5,244.5,951.3,235.5,988.5,243.9z"/>
	<path class="st1" d="M560.6,1394.9c2.7,5.2,5.4,9.8,7.8,13.7C566.4,1404.7,563.8,1400,560.6,1394.9z"/>
	<path class="st1" d="M1900.7,1552.5c-22.6-40.7-44.3-66.6-81.2-110.9c-16.3-19.5-39.5-47.2-73.7-80.6c-21.9-21.4-39.9-36.9-68.9-62
		c-53.9-46.5-48.7-38.4-68.2-57.1c-25-24-46.9-55.9-90.9-119.8c0,0-12.5-18.1-20.7-44.8c-2.3-7.6-4.7-17.2-2.8-28.9
		c1.1-6.5,3.2-11.7,4.8-15.1c25.2-14.9,44.2-28.9,57.1-39.2c28.2-22.4,39.9-36.9,56.5-46.1c5.9-3.3,10.3-6.8,18.6-14.5
		c5.1-4.6,7.3-7.3,8.3-11c1.4-5.1-0.3-9.1-1.4-13.1c-1.5-5.3-1-13.4,0-29.6c1.3-21.6,4.1-27.8,0-31c-3.5-2.7-9.8-1.5-13.8,1.4
		c-7.8,5.6-6.2,17.5-7.6,27.5c-1.8,12.5-8.3,22.3-30.3,44.1c-35.3,35-82.1,72.6-97.8,85.4c-46.8,38.1-62.7,54-97.8,78.5
		c-11.9,8.3-30.3,20.4-55.8,33.7c-30.1,15.8-28.6,11.3-41,20.1c-29.9,21.3-36.9,46.3-60.7,48.3c-5.9,0.5-10.8-0.6-14-1.6
		c14.4-7.2,25.1-15.1,32.2-21.1c11.6-9.8,28.1-26.6,37-50.8c1.8-4.8,5.9-15.9,2.4-18.3c-3.2-2.3-11.1,3.6-22,11.7
		c-3.6,2.7-15.1,8.7-37.9,20.7c-10.9,5.7-27.9,14.6-50.3,23.4c-14.5,5.7-26.9,9.7-35.8,12.4c11.4-6.2,24.9-14.3,38.6-24.1
		c10.7-7.7,17.8-14,20-15.8c4.8-4.3,8.8-8.1,11.7-11c-12.7,5.6-24.3,4-28.2-2.1c-0.8-1.2-2-3.7-1.4-8.3
		c-6.4,5.2-14.4,10.7-24.1,15.8c-16.8,8.8-32.4,13-44.1,15.1c0.1-0.1,13.1-9.9,13.2-9.9l8.8-6.6c-1,0.4-3.7,1.3-11.6,3.4h-0.1
		c-6.8,1.9-53.3,11-53.7,9c-0.2-0.9,9.2-4.1,41.3-12.4c7.1-1.8,21.8-6.6,33.7-20c4.5-5,7.5-10.1,9.6-14.5c-17,9-47.9,22.1-87.4,21.3
		c-15.4-0.3-28.9-2.6-39.9-5.5c6.1-2.2,14.8-6,24.1-12.4c3.1-2.1,10.7-7.7,27.5-26.9c6.3-7.2,14.4-16.9,23.4-28.9
		c-15.4,9.1-34.9,18.9-58.5,26.9c-16.8,5.7-32.4,9.3-46.1,11.7c16.6-12.7,31.7-24.9,45.4-36.5c18-15.2,27.9-24.3,35.8-39.2
		c4-7.4,6.2-14.1,7.6-18.6c-25.2,28.9-47.3,38-63.3,40.6c-6.9,1.1-16,1.6-56.5,6.2c-7.5,0.9-13.7,1.6-17.9,2.1
		c5.7-4.8,11.5-9.6,17.2-14.5c-3.8,1.3-8.7,2.9-14.5,4.2c-10.1,2.3-18.6,3.1-24,3.3c-5.9,0.3-13.1,0.2-21.3-0.7
		c6.2-2.3,12.9-5.2,20-9c13.2-7,23.7-15,31.7-22c-22.3,9.5-46.8,18.6-73.7,26.9c-13.7,4.2-27.1,7.8-39.9,11c2.6-2,6.3-5.2,10.3-9.6
		c10.4-11.4,15.1-23,18.6-31.7c2.2-5.5,4.9-13.1,6.9-22.7c-9.7,13.1-22.3,27.7-38.6,42c-6.8,6-13.5,11.2-20,15.8
		c2.9-4.4,7-10.8,11.7-18.6c12.9-21.5,19.4-32.4,24.8-47.5c7-19.8,8.4-36.8,9.6-51.6c1.1-13,1-23.9,0.7-31.7
		c-1.3,4.6-3.7,11.1-8.3,17.9c-5.7,8.4-12.2,13.6-16.5,16.5c4.9-9.9,11.1-24.9,14.5-44.1c1.2-6.6,1.6-11.5,2.8-25.5
		c1.1-13.5,2.5-31.3,4.1-52.3c-2.1,10.8-6.1,25.2-14.5,40.6c-5.1,9.5-10.7,17.3-15.8,23.4c3.3-17.6,5.9-38.5,6.2-62
		c0.2-15.8-0.7-30.4-2.1-43.4c0.2,10.2-0.7,24.5-5.5,40.6c-3.5,11.9-8.2,21.6-12.4,28.9c2-10.8,4.2-26.8,3.4-46.1
		c-0.9-23.3-5.6-42.1-6.9-42c-1.3,0.1,2.7,18.7-2.1,43.4c-2.3,11.7-5.6,21.6-9,29.6c1.6-13.4,2.5-32.6-1.4-55.1
		c-0.9-5.2-2.6-14.5-6.1-25.6c3.1-9,6.4-20.9,8.7-35c1.1-6.6,2.1-11.7,2.5-14.8c1.6-10.3,3.8-25,4.4-42.1
		c0.5-16.8,0.9-34.5-5.7-55.5c-2.3-7.2-4.1-12.8-8.6-19.2c-10.7-15.3-26.3-20.9-32-22.9c-6.7-2.3-20.3-5.7-53.5,1.3
		c-6.3,1.3-77,16.2-76.3,35.3c0.2,4.5,4.2,7.9,9.1,11.9c8.8,7.1,16.4,7.4,33.9,11.4c15.6,3.5,25.7,5.8,37.4,11.5
		c11.3,5.5,17.1,8.3,22.3,14.6c8.3,10,7.4,18.1,15.2,37.6c-19.4-17.3-40.5-27.8-55.4-35.2c-29.8-14.8-66-25.6-68.9-20
		c-2.3,4.5,17.7,16.6,42,37.2c20.5,17.3,58.8,49.8,84,96.4c0,0,37.5,69.3,20,141.2c-1.7,7.2-5.6,23.7-13.8,24.1
		c-6.2,0.3-13.2-5.2-15.8-13.8c-0.4,9.1-1.6,22.8-4.8,39.2c-4.6,23.3-9.1,45.9-25.5,67.5c-5.6,7.4-15.7,18.7-32.4,28.9
		c2.9-7.7,6.7-18.5,10.3-31.7c2.9-10.3,11.9-44.4,13.8-90.9c0.7-18.2,0.5-41.6-2.8-68.9c-24.3-47.9-45-80.5-59.9-101.9
		c-15.5-22.2-25.9-48.1-44.1-68.2c-3.1-3.5-11.4-12.1-14.5-25.5c-1.8-8,0.1-9-2.1-15.8c-4-12.4-12.3-12.1-18.6-25.5
		c-1.9-3.9-6.3-11.4-4.3-19.6c1-4.1,2.9-5.7,8-14.9c2.7-4.9,4.7-8.9,5.9-11.6c28.8-41.7,58.1-71.3,79.9-90.9
		c25.6-22.9,45.6-40.4,77.8-53.7c27.9-11.5,52.8-15,69.5-17.2c21.8-2.9,40.5-3.2,54.4-2.8c-7.3-1.1-70.3-10.5-112.2-1.4
		c-2.6,0.6-12,3.2-22.7,6.2c-14.4,4.1-25.2,7.6-47,14.6c-8.1,2.6-15.9,5.2-25.8,10.3c-4.5,2.4-8.1,4.5-10.5,6.1
		c1.8-3.2,3.7-6.4,5.5-9.6c19-10.7,38.3-21.9,57.8-33.7c14.8-8.9,29.3-17.9,43.4-26.9c-11.3,2.1-23.5,5-36.5,9
		c-24.5,7.5-45.2,17-62,26.2c4.1-3.2,9.7-7.3,16.5-11.7c2.8-1.8,12.8-8.1,28.6-15.5c8.3-3.8,19.1-8.4,34-13.5
		c29.4-9.9,58.3-15.9,77.8-19.3c-19.1-0.3-40.1,0.2-62.7,2.1c-20.9,1.7-40.2,4.4-57.8,7.6c12.2-3.9,28.6-10.5,45.2-22
		c11.7-1.3,27.7-2.7,46.8-3.3c58.8-1.8,98.9,5.8,99.2,3.7c0.3-1.8-29-9.6-62.2-12.3c-28.6-2.3-53.1-0.3-71.5,2.4
		c5.3-4.5,10.5-9.6,15.4-15.3c5.4-6.3,10-12.5,13.8-18.6c-21.2,10.3-42.5,20.9-64,31.7c-22.3,11.2-44.4,22.5-66.1,33.7
		c-20,9.6-39.9,19.3-59.9,28.9c3.9,1.7,9.7,4.8,10.3,9.6c1.1,8.5-14.6,17-18.6,19.3C554,394.4,524.5,439,465.5,528.1
		c-23.4,35.4-38.8,62-49.6,99.2c-6.4,22-7.3,34.8-10.3,124.6c-3.6,105.3-4,134.5-9.6,181.1c-3.7,30.3-8.1,54.8-11,70.2
		c-3.6-30.7-5.7-55.8-6.9-73c-2.8-38.7-3-61.5-9.6-96.4c-2.9-15.4-6.1-27.8-8.3-35.8C240,973.9,152.5,1099.4,133.9,1120.8
		c-3.5,4-17.9,19.4-15.1,37.2c1,6.6,3.8,11.7,6.2,15.1c-9.2,14.9-31,52.2-39.9,89.5c-4.5,18.7-7.7,40.5-10.3,61.3
		c0,0-0.9,4.9-1.4,12.4c-0.4,7-0.6,10.6,0.7,13.8c0.7,1.7,3.3,7,12.4,10.3c-0.3,7.1-0.6,17.6-0.7,30.3c-0.2,33.5,1.7,59.1,4.1,90.9
		c1.1,13.9,2.6,32.5,4.8,54.4c-0.6-9.5-2.5-53.2,26.9-76.4c3.4-2.7,7.5-5.3,12.4-7.6c-1.9,23.1-11.1,139.2,2.1,174.9
		c3.8,10.2,9,23.4,9,23.4c7.2,18.3,14.4,35.7,17.2,42c16.6,37.3,46.2,66.9,63.3,84c11.4,11.4,27.8,26.4,49.6,42
		c-0.2-2.5-0.3-6.1,0-10.3c0.3-5.3,0.5-8,2.1-10.3c0.7-1.1,3.1-4.2,9-5.5c10.2,9.4,25.4,22.1,45.4,34.4
		c45.4,27.9,86.4,36,136.3,45.4c45.4,8.6,97.6,13.4,128.1,13.1c4.6-0.1,22-0.4,45.4,1.4c13.7,1,25,2.4,32.4,3.4
		c23.3,6.8,166.1,47.9,280.9,57.8c33.5,2.9,50.3,4.4,70.9,4.1c57-0.7,86.9-10.7,119.1-2.1c4.1,1.1,16.9,4.8,34.4,5.5
		c10.2,0.4,19.3-0.3,26.9-1.4c-1-0.2-13.9-2.7-18.6-14.5c-0.6-1.5-3.8-9.7,0-15.8c5.6-9,22.4-7.3,33.7-6.2c11.5,1.2,15.3,4,29.6,6.9
		c12.9,2.6,25.4,5.1,38.6,6.2c20.2,1.6,35.3-0.8,51.6-3.4c13.9-2.2,31.6-7.5,66.8-17.9c13.6-4,30.7-9.3,30.3-11
		c-0.1-0.6-2-0.2-7.6-0.7c-10.8-1-18.5-1-20-4.1c-2-4.2,7.4-13.2,15.1-18.9c13.5-10.1,26.1-13.4,35.8-16.3c8.7-2.6,20-6.3,33.3-11.5
		c10-3.9,15.2-14.9,12-25.1l-2.3-7.2c-2.6-8.3-6.5-16.1-11.5-23.1c-2.6-3.6-4.8-6.8-6.6-9.4c-19.9-28.5-12.4-21.3-20.7-31.7
		c-3.6-4.5-7.4-8.9-8.3-15.8c-0.3-2.1-1.1-8.9,3.4-13.8c5.4-5.9,14.2-4.4,15.8-4.1c3.3,0.6,6,1.9,8.1,3.4c1.5,1,3.5-0.5,2.8-2.2
		c-6.3-16.7-13-30.3-18.5-40.4c-2-3.7-15.3-27.7-35.8-50.3c-6.4-7.1-14.2-14.8-26.2-20.7c-5-2.4-9.3-3.9-12.4-4.8
		c4.5,6.7,9.6,15.7,13.8,26.9c4.4,11.6,6.5,22.1,7.6,30.3c-5.2-6-12.5-13.8-22-22c-7.4-6.4-24.4-20.7-47.5-30.3
		c-18.6-7.7-34.7-9.6-55.8-11c-27.7-1.9-65.9-3.1-112.9-0.7c-9.5,6.9-22.2,15.4-37.9,24.1c-12.9,7.2-32.6,17.2-57.8,26.2
		c-26,9.2-51,15-51.6,13.1c-0.5-1.6,16.7-6.4,40.6-22c9.7-6.3,17.7-12.7,26.2-19.3c10.3-8.1,18.7-15.2,24.8-20.7
		c-28.8,2.5-51.8,7.2-67.5,11c-42.6,10.3-77.8,22.7-77.8,22.7c-29.4,10.3-50.4,19.8-56.5,12.4c-2.4-2.9-1.7-7.4-0.7-11
		c-23.5,5.9-41.2,13.4-53,19.3c-12.1,6-27.7,14.9-52.3,23.4c-22.6,7.8-25,5.7-25.5,4.8c-1.3-2.2,3.3-7.4,13.8-17.2
		C822,1643,832,1633.6,850,1622c19.8-12.7,36.4-19.8,48.2-24.8c15.2-6.4,28.5-10.8,38.6-13.8c-9,0.4-18.7,1.3-28.9,2.8
		c-21,3-39.5,7.8-55.1,13.1c-13.8,7.7-35.9,18.9-64.7,28.2c-19.9,6.4-30.5,8-54.4,14.5c-17.7,4.8-43.6,12.6-75.1,24.8
		c2.8-5.4,7.4-12.9,14.5-20.7c9.7-10.7,19.4-16.5,28.9-22c7.1-4.2,17.1-9.3,29.6-13.8c-37.3-4.4-66.8-12.8-87.4-20
		c-30.1-10.5-48.1-20.9-52.3-23.4c-17.6-10.4-31.2-21.2-40.6-29.6c18.4,3.7,33.2,6.8,43.4,9c4.9,1,8.2,1.7,19.3,4.1s28.1,6,38.6,8.3
		c-4.4-2.9-11.4-7.5-20-13.1c-42.2-27.6-44.9-29-52.3-35.1c-9.9-8-17.7-16-33.7-31.7c-13.1-12.8-16.2-16.5-17.9-18.6
		c-7.4-9.1-17.2-24.2-23.4-47.5c10.7,10,20.1,18.1,27.5,24.1c16.1,13.1,26.1,19.4,39.9,28.2c14.8,9.4,17.1,9.7,17.9,9
		c1.2-1.2-0.6-6.1-20-32.4c-14-19-25.4-33.2-30.3-39.2c-21.3-26.5-32.1-39.9-38.6-46.8c-12.3-13.1-24.4-24.5-35.8-34.4
		c14,4.6,36.2,13.7,58.5,32.4c16.9,14.1,28.5,29.1,36.3,41.4c-2.2-4.2-4.4-8.7-6.5-13.7c-3.6-8.3-6-15.5-7.7-20.9
		c-2.3-7.5-5.7-20-7.6-35.8c-0.9-7.3-1.2-13.7-0.7-47.5c0.2-13.7,0.5-25,0.7-33.1c7.6,31.3,18.8,54,27.5,68.9
		c6,10.2,5.4,7.4,36.5,51c26.1,36.6,26.7,38.8,34.4,45.4c21.2,18.3,44.1,32.4,44.1,32.4c5.5,3.4,14.4,8.6,20.7,19.3
		c4.2,7.3,5.7,14.4,6.2,19.3c13.8,13.7,26.6,21.9,35.8,26.9c23.6,12.7,65.8,27,89.5,29.6c2.4,0.3,8.6,0.8,15.1,4.8
		c7.4,4.5,11.5,11.2,13.8,15.8c24.7-2.7,62.4-7.1,108.8-13.1c81.5-10.5,75.2-11.4,100.5-13.1c38.6-2.6,77.1-7.1,115.7-10.3
		c4.6-0.4,16.6-1.4,31-6.9c9.8-3.8,17.7-8.4,23.4-12.4c28.7-3.3,53.4-5.1,73-6.2c66.2-3.6,40.8,3.3,79.2,2.1
		c1.4,0,14.1,3.8,29.8,7.1c1.8,0.4,3.5,1.1,4.9,2.3c8.1,6.9,6.7,17.8-0.3,23c-3.3-0.6-9.8-1.2-17.2,1.4c-5.1,1.7-8.7,4.3-11,6.2
		c12.9,4.1,29,10.5,46.1,20.7c15.1,8.9,27.2,18.5,36.5,26.9c5.3-4,12.5-10.2,19.3-19.3c11.5-15.2,15.3-29.8,17.9-39.9
		c3.7-14.5,2.5-36.3,0-79.9c-0.8-14-1.6-24.9-9-35.1c-3-4.1-4-4.1-13.8-15.8c-8.4-10.2-11.4-14.9-13.8-20.7c-2.2-5.4-3-9.9-3.4-12.4
		c-2-11.5,1.4-16.5,0-25.5c-1.7-11.2-5.3-19.5-10.3-31c-4.1-9.4-8.3-17.2-12.4-24.8c-5.2-9.7-9.7-17.2-12.4-28.9
		c-2.3-9.7-1.2-13.2,0.7-15.1c3.6-3.7,10.7-2.3,11.7-2.1c4.8,1,7.9,3.9,9,4.8c11.8,10.9,47.8,53.8,53.7,60.6
		c15.6,18,18.1,12.3,43.4,35.8c21.9,20.3,36.6,40,45.4,53c-0.4,6-0.8,15.1-0.7,26.2c0.2,17,0.4,41.6,6.2,42.7
		c3.2,0.6,4.8-7.2,14.5-17.2c7.4-7.7,14.8-13.8,21.3-18.6c-3.4,11.7-6.9,23.4-10.3,35.1c14.1-4.6,34.2-9.2,58.5-9
		c14,0.2,26.3,1.9,36.5,4.1c-2.5,0.6-5,1.3-7.6,2.1c-13.7,4.1-25.4,9.9-35.1,15.8c8.7-1.6,24.4-3.3,42.7,2.1
		c11.4,3.3,20.2,8.3,26.2,12.4c-11.9,2.9-32.1,5.1-48.1,13.2c-12.4,6.3-28.2,13.1-40,21.6c-18,12.9-23.5,30-22.1,32
		c0.6,0.9,4.7-2,12.4-3.4c8.3-1.6,15.5-0.6,20.7,0.7c-8.6,2.6-21.3,7.6-34.4,17.2c-16.7,12.2-25.5,25.8-32.4,36.5
		c-7.2,11.2-17,29.4-22.7,54.4c-0.6-14,0.1-25,0.9-32.6c0.9-8.7,3.2-24.8,1-32.4c-0.2-0.7-0.8-2.4-0.4-4.5c0.8-4.9,5.5-7.4,4.8-8.3
		s-3.4,0.1-6.9,1.4c-4.5,1.7-2.2,0.4-4.5,1.7c-0.4-8.7,1.4-16,1.3-25.2c0-5.1,8.2-19.8,8.2-24.7c-7.1,2.6-17.6,7.2-28.3,15.8
		c-16.4,13.1-24.2,27.8-29.8,38.6c-10.7,20.8-18.4,47.2-14.5,48.9c5.3,2.2,33.2-44.7,33.2-44.7s-5.5,26.4-6.1,38.5
		c-0.3,6.5-1.3,0.9-1.2,32.6c0.1,20.6,2.2,31,2.4,33.4c1.6,19.3,9.1,33.6,11.7,42.1c4,13.5,9.7,28,14.2,49c0.1,0.5,0.2,0.9,0.3,1.3
		c1.5,7.1,3.2,17.1,4.3,29.5c0.4,4.5-2.2,8.8-6.4,10.5l-5.6,2.3c-2.7,1.1-3.1,4.7-0.7,6.3c14.8,10.1,40,24.1,71,25.8
		c12.7,0.7,30.3,1.4,44.8-10.3c5.5-4.5,8.9-9.5,11-13.1c8.3,10.8,20.2,22.8,36.5,32.4c13.5,7.9,24.7,11,31.7,12.4
		c8.7,1.8,15,3,22,0.7c15.1-5,20.9-22.4,22-26.2c2.4-2.7,9.1-9.5,20-11.7c6-1.3,11.2-0.7,14.5,0c0.7,10.8,1.4,21.6,2.1,32.4
		c20.8-9.4,62.3-32.1,83.3-77.8c10.6-23,12.5-44.5,14.5-65.4c1.3-14.4,3.3-47.9-6.2-89.5C1930.4,1606.2,1915.7,1579.4,1900.7,1552.5
		z M1418.4,1772.2c25,22.7,40.4,46.3,49.3,62.7c-20.1-15.2-40.3-30.4-60.4-45.7c4.6,5.8,10.7,14.9,14.8,27.2
		c6.3,18.9,4.7,35.3,3.2,43.8c-8.8-4.3-22.1-10.5-38.7-17.1c-19.1-7.5-24.3-8.3-40.1-14.8c-28.1-11.4-49.7-24.4-48.9-26.3
		c0.7-1.6,17.3,7.4,42.4,7.4c0.9,0,13.5-0.2,27.7-6c7.2-3,10.2-5.5,12-8.8c2.5-4.5,2-9.1,1.4-14.3c-1.1-9.4-4.3-16.5-6-19.8
		c-3.6-7.3-10-18.4-21.2-30.4C1370.5,1737.6,1394.4,1750.4,1418.4,1772.2z M1318.8,1639.8c40.3,12.4,65.2,36.6,75.6,48
		c-19.3-11.2-44.1-23.6-74.3-33.7c-32.2-10.8-61.2-16-84.4-18.4C1250.8,1632.7,1282,1628.6,1318.8,1639.8z M680.6,893.9
		c-3,19.2-9,30.8-18.4,54.4c-5.6,14.1-13.4,34.9-21.4,61.2c1.3-21.6,1-47.8-3.4-77.1c-2.5-16.7-6-31.9-9.8-45.4
		c-1.1-5.4-2.3-10.8-3.4-16.3c3.9,2.1,9.1,5.4,14.1,10.7c7.2,7.5,10.7,15.3,12.4,20.1c1.3-6.1,3.4-13.3,6.9-21
		c6.8-15.2,15.8-26.1,22.7-33C682,858.3,683.7,874.6,680.6,893.9z M836.7,1251.9c-9.7-8.7-14.7-18.6-17.4-25.4
		c2.2,20,4.3,40.1,6.5,60.1c-7.2-8.3-17.2-21.3-25.4-39.1c-9.5-20.7-13-39.9-16.7-97.1c-1.4-21.8-2.8-49.2-3.6-81.2
		c-6.3,23.7-12.6,47.3-18.8,71c-6.5-29.4-9.4-54.5-10.9-73.2c-2.4-31.4-3.7-48.9,2.2-71c6.3-23.7,17.6-41.2,26.1-52.2
		c0.9,11.2,1.2,23.5,0.7,37c-0.8,20-3.4,37.8-6.5,52.9c7.2-14,14.5-28,21.7-42c2.9,21.9,5.4,44.9,7.2,68.8c2.7,34.9,3.8,68,3.7,99
		c0.4-5.8,1.8-13.4,5.8-21.5c6.2-12.6,15.3-19.6,19.6-22.5c-2,20.9-2.7,47.1,0.7,76.8c2.9,25.6,8.2,47.8,13.8,65.9
		C842.6,1256.7,839.6,1254.6,836.7,1251.9z M935.1,1350.1c-2.6-0.1-10.6-0.4-18-6.1c-5.9-4.6-8.4-10.3-9.4-13
		c-1.2,2.7-2.4,5.3-3.6,8c-5-2.3-12.4-6.5-19.6-13.8c-15.4-15.7-18.3-34.5-19.6-42.8c-3.4-21.8,2.3-39.3,5.8-47.8
		c10.4,0.8,15.3,4.4,17.8,7.6c4.5,5.6,3,11.8,1.9,38.2c-0.7,17.6-0.4,23.3,3.4,28.6c4,5.5,10.1,8,14.5,9.2c2.8-4.5,5.6-8.9,8.4-13.4
		c0.6,5.3,2.3,14.4,8,24c6.5,11,14.9,17.3,19.5,20.2C942,1349.5,938.9,1350.1,935.1,1350.1z M1454.4,1121
		c-37.9,32.5-46.6,41.4-54.5,51c-12.5,15-20.9,28.8-26,38.1c5.6-0.5,13.2-0.6,15.1,3.1c3.1,6-11,17-23.3,33
		c-8.3,10.8-18.3,26.6-26.3,48.8c-1.4-9.9-2.2-22.4-0.8-36.8c2.2-22.1,8.8-39.5,14.3-51.1c-9.8,10.3-19.5,20.5-29.3,30.8
		c1.6-14.6,6.9-45.5,29.3-76.6c20.4-28.3,44.9-43,57.8-49.6c-10.1,7.7-24.9,21.2-36.1,42.1c-5.1,9.5-8.4,18.6-10.5,26.3
		c8.7-14.3,24.3-35.6,49.6-54.8c30.5-23.2,60.7-32.2,78.1-36.1C1476.7,1102,1464,1112.8,1454.4,1121z M1698.7,1690.9
		c2.2,2.9,14-5.6,19.3-1.1c2.7,2.3,3.1,7.5,1.6,11.2c-3.6,9-16.3,5.7-32.1,15.5c-13.8,8.5-18.1,19.8-21.4,18.2
		c-4-2,1.1-19.5,1.6-21.4c4.4-15.2,11.9-26.9,18.7-35.3c-29.9,25.7-59.9,51.3-89.8,77c9.2-31.4,20.2-56,28.9-73.3
		c20.1-39.8,33.2-51.5,46-56.7c12.4-5.1,26.8-8.1,28.9-4.3c2.5,4.7-15.5,15.8-39.6,43.9c-13.9,16.2-23.8,30.9-22.5,32.1
		c1.5,1.3,16.4-18,44.4-33.7c16-9,35.7-16.4,38.5-12.3c1.3,1.9-2.7,7.9-10.7,19.8C1702,1683.2,1697.1,1688.9,1698.7,1690.9z
		 M1774,1707.9c-2.3,7.1-6.5,7.6-11,14.5c-5.2,8-2.2,11.5-7.9,18.9c-2.6,3.3-7.8,8.7-10.5,7.4c-2.5-1.2-1.7-7.5,0-20.2
		c1.5-11.2,2.2-16.9,4.6-21.2c1.7-3.2,6.4-10.3,17.3-15.3c0.7-0.1,3.9-0.5,6.1,1.5c1.5,1.4,1.8,3.2,2,5.4
		C1775.4,1703.6,1774.2,1707.3,1774,1707.9z M1809.5,1710.2c-2.8,8.8-9,18.5-12,17.6s-2.5-11.8-1.3-18.4c0.5-2.8,1.3-6.9,4.1-11.5
		c3.4-5.7,7.9-8.9,10.5-10.5C1811.7,1692.7,1812.4,1701,1809.5,1710.2z M1841.9,1698.5c-0.6,9.6-6,21.4-11.2,21.2
		c-5.8-0.2-12.5-15.1-8.9-27.6c2.1-7.2,7.2-11.7,9.9-13.8c0.7-0.4,1.7-0.7,2.8-0.5C1839.5,1678.7,1842.4,1689.9,1841.9,1698.5z
		 M1890.5,1687.3c-0.5,3.9-1.9,14.1-4.8,14.3c-1.4,0.1-2.6-2.3-4.4-6c-2.1-4.4-4.6-9.5-3.6-15.9c0.3-1.8,1.2-7.6,4.4-8.4
		c3.1-0.7,7,3.7,8.4,8C1890.8,1680.1,1891.2,1681.9,1890.5,1687.3z M1900.5,1655.4c-0.8,0-0.4-3.6-2.8-7.2
		c-3.6-5.5-9.5-4.5-10.8-8.4c-1.2-3.7,2.3-9.4,5.6-9.6c5.1-0.3,10.8,13.1,10.8,13.2C1903.3,1643.4,1902,1655.3,1900.5,1655.4z"/>
	<path class="st1" d="M708.7,752.4c13.2,22.9,29,53.8,43,92.4c-2.9-17.4-7.9-39.8-17.4-64.9c-14.1-37.6-31.7-64.4-41.2-77.7
		c-29.2-41.1-62.6-68.2-87.8-85c11.7,12.4,27.1,29.3,43.9,50.3C665.1,687.1,686.6,714.1,708.7,752.4z"/>
	<path class="st1" d="M1583.4,780c10.6,3,16.8-0.6,25.9,5.1c4.8,3,7.5,6.8,9.3,9.4c9.2,13,5.4,23.3,13.4,29.2c3.9,2.8,8.2,3,11.2,3
		c20.6,0.2,57.3-38.6,72-89.3c10.5-36.1,6.2-65.5,2-91.3c-1.2-7.7-4.8-27.6-17.2-48.7c-11.1-18.9-19.8-22.3-23.3-23.3
		c-5-1.5-12.1-0.6-26.2,1.4c-14.3,2-21.4,2.9-25.5,5.7c-9.5,6.6-9.7,18.2-12.7,34c-5.6,29.1-16.8,50.5-23.4,63.3
		c-12.3,23.7-20.2,26.8-27.5,49.8c-6.3,20-3.8,28.6-1.4,33.4C1564.6,770.6,1574.1,777.4,1583.4,780z"/>
	<path class="st1" d="M1421.7,723.5c0-1.4-1.9-2.6-3.5-3.4c-5.8-0.2-14.4-0.4-24.8,0c-19.2,0.8-55.3,5.8-110.9,26.3
		c-34.5,12.7-94,37.6-154.7,93.4c-61.3,56.4-96.2,120.3-93.4,122.6c2.7,2.1,25.3-36.4,77.7-84.2c108.3-98.7,228.7-131.7,247-135.5
		c10.8-2.2,21.4-5.5,32.1-8.2C1409.4,730,1421.7,727.2,1421.7,723.5z"/>
	<path class="st1" d="M1380.5,801.7c0.1-3.3-5.4-5.9-6.2-6.2c-8.3-3.9-17.6-0.2-20.3,0.8c-76.1,29.7-128.4,111.6-128.4,111.6
		c-36.1,56.5-50.8,109.6-49.3,110.3c2.6,1.2,17.3-39.2,57.4-95.4c35.9-50.3,98.2-102.9,128.8-111.3
		C1365.6,810.7,1380.4,807,1380.5,801.7z"/>
	<path class="st1" d="M1339.6,1024.9c3.2,0.1,3.1-28.7,13.4-67.7c17.3-65.8,49.3-104.2,45.8-106.6c-2.9-1.9-25.6,23.3-41.3,53.5
		c-15.1,28.8-19.1,53.2-20.3,60.8C1332.7,995.4,1336.3,1024.8,1339.6,1024.9z"/>
	<path class="st1" d="M1440,922.8c-4.7,31,0,61.8,3.6,62c2.9,0.1,5.6-19.6,9.7-50.2c4-29.9,8-59.5,4.5-60.8
		C1454.5,872.6,1444.1,896.5,1440,922.8z"/>
	<path class="st1" d="M1581.3,481.3c0.6,0.9,1.5,0.8,13.5,0c11.7-0.7,15.7-0.9,19.3-4.1c1.3-1.1,3.3-2.9,3.3-5.3
		c-0.1-5-9.4-10.3-17.4-9.7C1587.9,463.2,1579,477.5,1581.3,481.3z"/>
	<path class="st1" d="M1583.4,379.6c0.4-7.4-3.3-13-4.9-15.2c-1.8-2.4-2.7-3.6-4.1-4.1c-6.6-2.4-11.7,11.8-27.5,19.3
		c-9.9,4.7-13.9,1.9-28.3,9c-4.3,2.1-7.5,3.7-11.1,7c-6,5.5-14.3,17-11.1,24.6c3.9,9.2,23.7,11.1,37.7,5.7c0.7-0.3,1.3-0.5,1.8-0.8
		c3.5,0.5,7.3,0.7,11.3,0c9-1.6,14.8-6.4,23.8-13.9c5-4.2,20.1-17.7,18-20.9c-0.7-1.1-3.4-1.1-9.8,1c0.1-0.2,0.3-0.4,0.4-0.6
		C1583,385.4,1583.3,381,1583.4,379.6z"/>
	<path class="st1" d="M1593.2,403.8c-2.8-0.6-7.5,11-8.2,12.7c0.4,0.4,5.1,4,8.2,2.5C1597.9,416.7,1596,404.4,1593.2,403.8z"/>
	<path class="st1" d="M1465.7,517c2.7-0.7,7.6-2,12.7-6.1c1.1-0.9,5.8-4.8,9-11.9c1.7-3.8,5.8-12.7,2.5-16.4
		c-3.6-4-14.7-0.9-21.7,4.5c-11.9,9.1-15.5,27.3-11.1,30.7C1458.5,518.8,1460.9,518.2,1465.7,517z"/>
	<path class="st1" d="M1492.4,565.7c2.3,0.6,12.9,2.9,22.5-3.3c9.5-6.1,11.5-16.4,12.7-22.5c1-5,3-14.9-1.2-17.6
		c-5.4-3.5-19.3,6.1-26.6,17.2C1493,549.8,1492.3,560.5,1492.4,565.7z"/>
	<path class="st1" d="M1530.1,614.1c1.4-0.8,3.9-2.6,9.8-13.9c6.3-12.1,9.4-18.2,9-25.4c-0.1-1.1-0.8-14-7-16
		c-8-2.5-22.3,14.3-27.9,31.2c-3.3,10-3.1,19.1-2.5,25C1514.8,616,1523,618.2,1530.1,614.1z"/>
	<path class="st1" d="M1547.7,661.7c4.7-1.3,7.1-5.4,11.5-13.1c3.1-5.5,6.7-11.8,8.6-21.3c2.2-11,0.8-19.1-1.6-32.4
		c-1.3-6.9-2.1-11.4-3.7-11.5c-3-0.2-2.2,15.5-12.7,31.2c-7.1,10.5-13.1,11.8-16.8,22.1c-2.7,7.4-2.3,14.3-1.6,18.9
		C1532.5,656.6,1540,663.7,1547.7,661.7z"/>
	<path class="st1" d="M1350.6,459.8c5.4-3.5,15.1-9.9,16.8-20.9c0.2-1.6,1.4-9.5-3.1-15.2c-7.1-8.9-21.4-4.4-49.8-5.1
		c-17.7-0.5-31.2-2.8-38.4-4c-24.7-4.3-25.5-8.3-51.7-13c-18.7-3.4-33.4-4.1-40.3-4.3c-11.1-0.3-20.6,0.1-28.3,0.8
		c-1.3,0.1-1.9,1.6-1.2,2.6c2.1,2.8,5.1,6.4,9.2,10.1c11.5,10.4,24,14.9,62.4,24.2c9.5,2.3,21.4,5.1,35.3,8.1
		c-18.8,3-22.9,6.2-23,8.6c-0.4,6.6,28.6,13.8,48.7,16.4C1305.3,470.3,1329.8,473.2,1350.6,459.8z"/>
</g>
</svg>
